<mxfile host="app.diagrams.net" modified="2023-01-21T02:59:43.131Z" agent="5.0 (Windows)" etag="mLAMvPlZ0FxpCcMOx7Ue" version="20.8.5" type="github">
  <diagram id="c9uLVnNMo0gJ4ky4f98U" name="Page-1">
    <mxGraphModel dx="1195" dy="645" grid="1" gridSize="10" guides="1" tooltips="1" connect="1" arrows="1" fold="1" page="1" pageScale="1" pageWidth="827" pageHeight="1169" math="1" shadow="0">
      <root>
        <mxCell id="0" />
        <mxCell id="1" parent="0" />
        <mxCell id="M-YHHyKIcNLoA--MR-xb-7" value="" style="endArrow=classic;html=1;rounded=0;" parent="1" edge="1">
          <mxGeometry width="50" height="50" relative="1" as="geometry">
            <mxPoint x="390" y="600" as="sourcePoint" />
            <mxPoint x="390" y="330" as="targetPoint" />
          </mxGeometry>
        </mxCell>
        <mxCell id="M-YHHyKIcNLoA--MR-xb-6" value="" style="endArrow=classic;html=1;rounded=0;entryX=0.833;entryY=0.333;entryDx=0;entryDy=0;entryPerimeter=0;" parent="1" target="M-YHHyKIcNLoA--MR-xb-8" edge="1">
          <mxGeometry width="50" height="50" relative="1" as="geometry">
            <mxPoint x="270" y="480" as="sourcePoint" />
            <mxPoint x="610" y="480" as="targetPoint" />
          </mxGeometry>
        </mxCell>
        <mxCell id="M-YHHyKIcNLoA--MR-xb-3" value="" style="ellipse;whiteSpace=wrap;html=1;aspect=fixed;dashed=1;dashPattern=1 1;fillColor=#d5e8d4;strokeColor=#82b366;" parent="1" vertex="1">
          <mxGeometry x="280" y="350" width="150" height="150" as="geometry" />
        </mxCell>
        <mxCell id="M-YHHyKIcNLoA--MR-xb-4" value="" style="ellipse;whiteSpace=wrap;html=1;aspect=fixed;dashed=1;fillColor=#dae8fc;strokeColor=#6c8ebf;" parent="1" vertex="1">
          <mxGeometry x="400" y="340" width="150" height="150" as="geometry" />
        </mxCell>
        <mxCell id="M-YHHyKIcNLoA--MR-xb-5" value="" style="ellipse;whiteSpace=wrap;html=1;aspect=fixed;dashed=1;dashPattern=1 4;fillColor=#fff2cc;strokeColor=#d6b656;" parent="1" vertex="1">
          <mxGeometry x="370" y="440" width="150" height="150" as="geometry" />
        </mxCell>
        <mxCell id="M-YHHyKIcNLoA--MR-xb-8" value="x" style="text;html=1;strokeColor=none;fillColor=none;align=center;verticalAlign=middle;whiteSpace=wrap;rounded=0;dashed=1;dashPattern=1 4;" parent="1" vertex="1">
          <mxGeometry x="520" y="470" width="60" height="30" as="geometry" />
        </mxCell>
        <mxCell id="M-YHHyKIcNLoA--MR-xb-9" value="y" style="text;html=1;strokeColor=none;fillColor=none;align=center;verticalAlign=middle;whiteSpace=wrap;rounded=0;dashed=1;dashPattern=1 4;" parent="1" vertex="1">
          <mxGeometry x="370" y="330" width="60" height="30" as="geometry" />
        </mxCell>
        <mxCell id="M-YHHyKIcNLoA--MR-xb-10" value="&lt;font style=&quot;font-size: 10px&quot;&gt;$$(x - 1.5)² + (y - 1.2)² = 1.25²$$&lt;/font&gt;" style="text;html=1;strokeColor=none;fillColor=none;align=center;verticalAlign=middle;whiteSpace=wrap;rounded=0;dashed=1;dashPattern=1 4;" parent="1" vertex="1">
          <mxGeometry x="400" y="400" width="160" height="30" as="geometry" />
        </mxCell>
        <mxCell id="M-YHHyKIcNLoA--MR-xb-11" value="`(x + 0.5)² + (y - 1)² = 1.25²`" style="text;html=1;strokeColor=none;fillColor=none;align=center;verticalAlign=middle;whiteSpace=wrap;rounded=0;dashed=1;dashPattern=1 4;fontSize=10;" parent="1" vertex="1">
          <mxGeometry x="310" y="440" width="120" height="30" as="geometry" />
        </mxCell>
        <mxCell id="M-YHHyKIcNLoA--MR-xb-12" value="$$(x - 1)² + (y + 0.5)² = 1.25²$$" style="text;html=1;strokeColor=none;fillColor=none;align=center;verticalAlign=middle;whiteSpace=wrap;rounded=0;dashed=1;dashPattern=1 4;fontSize=10;" parent="1" vertex="1">
          <mxGeometry x="382" y="500" width="126" height="30" as="geometry" />
        </mxCell>
        <mxCell id="M-YHHyKIcNLoA--MR-xb-13" value="$$Service \ range \ of \ bs_2:$$" style="text;html=1;strokeColor=none;fillColor=none;align=center;verticalAlign=middle;whiteSpace=wrap;rounded=0;dashed=1;dashPattern=1 4;fontSize=10;" parent="1" vertex="1">
          <mxGeometry x="310" y="420" width="60" height="30" as="geometry" />
        </mxCell>
        <mxCell id="M-YHHyKIcNLoA--MR-xb-17" value="$$Service \ range \ of \ bs_3:$$" style="text;html=1;strokeColor=none;fillColor=none;align=center;verticalAlign=middle;whiteSpace=wrap;rounded=0;dashed=1;dashPattern=1 4;fontSize=10;" parent="1" vertex="1">
          <mxGeometry x="430" y="380" width="60" height="30" as="geometry" />
        </mxCell>
        <mxCell id="M-YHHyKIcNLoA--MR-xb-18" value="$$Service \ range \ of \ bs_1:$$" style="text;html=1;strokeColor=none;fillColor=none;align=center;verticalAlign=middle;whiteSpace=wrap;rounded=0;dashed=1;dashPattern=1 4;fontSize=10;" parent="1" vertex="1">
          <mxGeometry x="400" y="480" width="60" height="30" as="geometry" />
        </mxCell>
        <mxCell id="qcRH5nb0E6CeJJAzjBTW-1" value="" style="endArrow=classic;html=1;rounded=0;" edge="1" parent="1">
          <mxGeometry width="50" height="50" relative="1" as="geometry">
            <mxPoint x="390" y="940" as="sourcePoint" />
            <mxPoint x="390" y="670" as="targetPoint" />
          </mxGeometry>
        </mxCell>
        <mxCell id="qcRH5nb0E6CeJJAzjBTW-2" value="" style="endArrow=classic;html=1;rounded=0;entryX=0.833;entryY=0.333;entryDx=0;entryDy=0;entryPerimeter=0;" edge="1" parent="1" target="qcRH5nb0E6CeJJAzjBTW-6">
          <mxGeometry width="50" height="50" relative="1" as="geometry">
            <mxPoint x="270" y="820" as="sourcePoint" />
            <mxPoint x="610" y="820" as="targetPoint" />
          </mxGeometry>
        </mxCell>
        <mxCell id="qcRH5nb0E6CeJJAzjBTW-3" value="" style="ellipse;whiteSpace=wrap;html=1;aspect=fixed;dashed=1;dashPattern=1 1;fillColor=#d5e8d4;strokeColor=#82b366;" vertex="1" parent="1">
          <mxGeometry x="280" y="690" width="150" height="150" as="geometry" />
        </mxCell>
        <mxCell id="qcRH5nb0E6CeJJAzjBTW-4" value="" style="ellipse;whiteSpace=wrap;html=1;aspect=fixed;dashed=1;fillColor=#dae8fc;strokeColor=#6c8ebf;" vertex="1" parent="1">
          <mxGeometry x="400" y="680" width="150" height="150" as="geometry" />
        </mxCell>
        <mxCell id="qcRH5nb0E6CeJJAzjBTW-5" value="" style="ellipse;whiteSpace=wrap;html=1;aspect=fixed;dashed=1;dashPattern=1 4;fillColor=#fff2cc;strokeColor=#d6b656;" vertex="1" parent="1">
          <mxGeometry x="370" y="780" width="150" height="150" as="geometry" />
        </mxCell>
        <mxCell id="qcRH5nb0E6CeJJAzjBTW-6" value="x" style="text;html=1;strokeColor=none;fillColor=none;align=center;verticalAlign=middle;whiteSpace=wrap;rounded=0;dashed=1;dashPattern=1 4;" vertex="1" parent="1">
          <mxGeometry x="520" y="810" width="60" height="30" as="geometry" />
        </mxCell>
        <mxCell id="qcRH5nb0E6CeJJAzjBTW-7" value="y" style="text;html=1;strokeColor=none;fillColor=none;align=center;verticalAlign=middle;whiteSpace=wrap;rounded=0;dashed=1;dashPattern=1 4;" vertex="1" parent="1">
          <mxGeometry x="370" y="670" width="60" height="30" as="geometry" />
        </mxCell>
        <mxCell id="qcRH5nb0E6CeJJAzjBTW-8" value="&lt;font style=&quot;font-size: 10px&quot;&gt;$$(x - 1.5)² + (y - 1.2)² = 1.25²$$&lt;/font&gt;" style="text;html=1;strokeColor=none;fillColor=none;align=center;verticalAlign=middle;whiteSpace=wrap;rounded=0;dashed=1;dashPattern=1 4;" vertex="1" parent="1">
          <mxGeometry x="400" y="740" width="160" height="30" as="geometry" />
        </mxCell>
        <mxCell id="qcRH5nb0E6CeJJAzjBTW-9" value="`(x + 0.5)² + (y - 1)² = 1.25²`" style="text;html=1;strokeColor=none;fillColor=none;align=center;verticalAlign=middle;whiteSpace=wrap;rounded=0;dashed=1;dashPattern=1 4;fontSize=10;" vertex="1" parent="1">
          <mxGeometry x="310" y="780" width="120" height="30" as="geometry" />
        </mxCell>
        <mxCell id="qcRH5nb0E6CeJJAzjBTW-10" value="$$(x - 1)² + (y + 0.5)² = 1.25²$$" style="text;html=1;strokeColor=none;fillColor=none;align=center;verticalAlign=middle;whiteSpace=wrap;rounded=0;dashed=1;dashPattern=1 4;fontSize=10;" vertex="1" parent="1">
          <mxGeometry x="382" y="840" width="126" height="30" as="geometry" />
        </mxCell>
        <mxCell id="qcRH5nb0E6CeJJAzjBTW-11" value="$$bs_2的服务范围:$$" style="text;html=1;strokeColor=none;fillColor=none;align=center;verticalAlign=middle;whiteSpace=wrap;rounded=0;dashed=1;dashPattern=1 4;fontSize=10;" vertex="1" parent="1">
          <mxGeometry x="310" y="760" width="60" height="30" as="geometry" />
        </mxCell>
        <mxCell id="qcRH5nb0E6CeJJAzjBTW-12" value="$$bs_3的服务范围:$$" style="text;html=1;strokeColor=none;fillColor=none;align=center;verticalAlign=middle;whiteSpace=wrap;rounded=0;dashed=1;dashPattern=1 4;fontSize=10;" vertex="1" parent="1">
          <mxGeometry x="430" y="720" width="60" height="30" as="geometry" />
        </mxCell>
        <mxCell id="qcRH5nb0E6CeJJAzjBTW-13" value="$$bs_1的服务范围:$$" style="text;html=1;strokeColor=none;fillColor=none;align=center;verticalAlign=middle;whiteSpace=wrap;rounded=0;dashed=1;dashPattern=1 4;fontSize=10;" vertex="1" parent="1">
          <mxGeometry x="400" y="820" width="60" height="30" as="geometry" />
        </mxCell>
      </root>
    </mxGraphModel>
  </diagram>
</mxfile>
